{"title":"Pacific Rim 2013 CAM COMPLETE MPEG-2 - JUSTiCE","uid":8809367,"size":2302810116,"categoryP":"video","categoryS":"movies","magnet":"?xt=urn:btih:05fc5c88520985f1294cd5e112a5b26415b01404&amp;dn=Pacific+Rim+2013+CAM+COMPLETE+MPEG-2+-+JUSTiCE&amp;tr=udp%3A%2F%2Ftracker.openbittorrent.com%3A80&amp;tr=udp%3A%2F%2Fopen.demonii.com%3A1337&amp;tr=udp%3A%2F%2Ftracker.coppersurfer.tk%3A6969&amp;tr=udp%3A%2F%2Fexodus.desync.com%3A6969","seeders":0,"leechers":1,"uploader":"TeX","files":2,"time":1376420100,"description":"Pacific Rim 2013 CAM COMPLETE MPEG-2 - JUSTiCE\n\n\n\nSOURCE : Ravers/SMY/Youtube\n\n\nVideo and audio both cleaned and given justice.\nCheck sample and see.....\n\n\nVIDEO:\nOk the new smy release IS a new video source and is alot better.It has it faults like all cams though.\nMain thing is the HC chinese ( i think ) subs and also missing end credits and the scene at the very end.\nAudio seems alot better but still cam....also where subs were needed on the old release ...this new audio seems\nto have them dubbed in.Most match the subs that were needed....\nHowever this some check 24mins were the dubbing doesn't quite match their mouths ....nothing can be done about that.\n\nWORKDONE:\nWell due to lack of time ( work ) i've opted to do a mpeg-2 release as its quicker and also allows me to at least get\na decent Q encode out for ya all.\nSo took the missing intro off the ravers release ....then added all the smy video...then added end credits and after scene\nfrom youtube.\nNow this made it a complete release with a runtime just under 2hrs 5mins...\nAll pieces were cropped and cleaned with some slight tweaking.If honest,wish i had the vobs ..would have got it even better.\n\nOh when encoding i left the output as 1:1 pixel so the black border does change but the AR stays intact ...and also forgot to\nsay i've cropped the movement on the sides and also 90% of the lower subs...some still appear but they were higher up.\n\nOverall ...V8 A6 M6\n\n\nOh mpeg-2 ...can play on most dvd players and its close to a dvdr/vobs.Also you can drop this into any dvd authoring app and will\nmake it a dvdr with vobs etc....within 10mins.Donkey work already done. \n\n\n\nVideo\nID : 224 (0xE0)\nFormat : MPEG Video\nFormat version : Version 2\nFormat profile : Main@Main\nFormat settings, BVOP : Yes\nFormat settings, Matrix : Custom\nFormat settings, GOP : M=3, N=18\nDuration : 2h 4mn\nBit rate : 2 284 Kbps\nMaximum bit rate : 2 300 Kbps\nWidth : 720 pixels\nHeight : 480 pixels\nDisplay aspect ratio : 3:2\nFrame rate : 29.970 fps\nStandard : NTSC\nColor space : YUV\nChroma subsampling : 4:2:0\nBit depth : 8 bits\nScan type : Progressive\nCompression mode : Lossy\nBits/(Pixel*Frame) : 0.221\nStream size : 1.99 GiB (93%)\nWriting library : TMPGEnc Video Mastering Works 5 Version. 5.0.5.32\n\nAudio\nID : 189 (0xBD)-128 (0x80)\nFormat : AC-3\nFormat/Info : Audio Coding 3\nMode extension : CM (complete main)\nMuxing mode : DVD-Video\nDuration : 2h 4mn\nBit rate mode : Constant\nBit rate : 128 Kbps\nChannel(s) : 2 channels\nChannel positions : Front: L R\nSampling rate : 48.0 KHz\nBit depth : 16 bits\nCompression mode : Lossy\nStream size : 114 MiB (5%)\n\n\n[IMG]http://i.imgur.com/bdh33Ib.png[/IMG]\n[IMG]http://i.imgur.com/yVH8046.png[/IMG]\n[IMG]http://i.imgur.com/YQLQYSS.png[/IMG]\n[IMG]http://i.imgur.com/jpCOWVS.png[/IMG]\n[IMG]http://i.imgur.com/RPhSXnv.png[/IMG]\n[IMG]http://i.imgur.com/wBQrVP2.png[/IMG]","torrent":{"xt":"urn:btih:05fc5c88520985f1294cd5e112a5b26415b01404","amp;dn":"Pacific+Rim+2013+CAM+COMPLETE+MPEG-2+-+JUSTiCE","amp;tr":["udp%3A%2F%2Ftracker.openbittorrent.com%3A80","udp%3A%2F%2Fopen.demonii.com%3A1337","udp%3A%2F%2Ftracker.coppersurfer.tk%3A6969","udp%3A%2F%2Fexodus.desync.com%3A6969"],"infoHash":"05fc5c88520985f1294cd5e112a5b26415b01404","infoHashBuffer":{"type":"Buffer","data":[5,252,92,136,82,9,133,241,41,76,213,225,18,165,178,100,21,176,20,4]},"announce":[],"urlList":[]}}